<!-- SPDX-FileCopyrightText: 2026 Adeveda Enterprises Private Limited -->
<!-- SPDX-License-Identifier: LicenseRef-Mixar-Brand -->
<!-- Supplied design artwork; only the canvas is normalized for Blender's SVG renderer. -->
<svg width="1600" height="1600" viewBox="0 0 1600 1600" fill="none" xmlns="http://www.w3.org/2000/svg">
<g transform="translate(0 0) scale(69.5652173913)">
<path d="M18.2096 8.62435C18.2096 10.0139 17.7976 11.2885 17.0884 12.3523C16.0534 13.8856 14.4146 14.9685 12.5076 15.2464C12.1817 15.3039 11.8463 15.3327 11.5013 15.3327C11.1563 15.3327 10.8209 15.3039 10.4951 15.2464C8.58797 14.9685 6.94922 13.8856 5.91422 12.3523C5.20505 11.2885 4.79297 10.0139 4.79297 8.62435C4.79297 4.9156 7.79255 1.91602 11.5013 1.91602C15.2101 1.91602 18.2096 4.9156 18.2096 8.62435Z" stroke="#5C5C5C" stroke-width="1.4375" stroke-linecap="round" stroke-linejoin="round"/>
<path d="M20.3641 17.7002L18.7829 18.074C18.4283 18.1602 18.1504 18.4286 18.0737 18.7831L17.7383 20.1919C17.5562 20.9586 16.5787 21.1886 16.0708 20.5848L11.4995 15.3331L6.9283 20.5944C6.42038 21.1981 5.44288 20.9681 5.2608 20.2015L4.92538 18.7927C4.83913 18.4381 4.56121 18.1602 4.21621 18.0836L2.63496 17.7098C1.90663 17.5373 1.64788 16.6269 2.17496 16.0998L5.91246 12.3623C6.94746 13.8956 8.58621 14.9786 10.4933 15.2565C10.8191 15.314 11.1545 15.3427 11.4995 15.3427C11.8445 15.3427 12.18 15.314 12.5058 15.2565C14.4129 14.9786 16.0516 13.8956 17.0866 12.3623L20.8241 16.0998C21.3512 16.6173 21.0925 17.5277 20.3641 17.7002Z" stroke="#5C5C5C" stroke-width="1.4375" stroke-linecap="round" stroke-linejoin="round"/>
<path d="M12.0564 5.73148L12.6218 6.86231C12.6985 7.01564 12.8997 7.16898 13.0818 7.19773L14.1072 7.37023C14.7589 7.47564 14.9122 7.95482 14.4426 8.4244L13.6472 9.2198C13.513 9.35397 13.4364 9.61273 13.4843 9.8044L13.7143 10.7915C13.8964 11.5677 13.4843 11.8744 12.7943 11.4623L11.836 10.8969C11.6635 10.7915 11.376 10.7915 11.2035 10.8969L10.2451 11.4623C9.55513 11.8648 9.14304 11.5677 9.32513 10.7915L9.55513 9.8044C9.59346 9.62232 9.52638 9.35397 9.39221 9.2198L8.59679 8.4244C8.12721 7.95482 8.28054 7.48523 8.93221 7.37023L9.95763 7.19773C10.1301 7.16898 10.3314 7.01564 10.408 6.86231L10.9735 5.73148C11.2514 5.11815 11.7497 5.11815 12.0564 5.73148Z" stroke="#5C5C5C" stroke-width="1.4375" stroke-linecap="round" stroke-linejoin="round"/>
</g>
</svg>
